# xmcd
#
# Track frame offsets:
#	150
#	12695
#	24467
#	41540
#	56275
#	69400
#	91237
#	101085
#	114930
#	127912
#	143695
#	158502
#	175452
#	189342
#
# Disc length: 2685 seconds
#
# Revision: 0
# Processed by: cddbd v1.5.1PL0 Copyright (c) Steve Scherf et al.
# Submitted via: audiograbber 1.83.01
#
DISCID=ac0a7b0e
DTITLE=Tom Astor - Kameraden der Straﬂe
DYEAR=1900
DGENRE=Country
TTITLE0=Truckstop Mama
TTITLE1=Tr‰nen auf Leder
TTITLE2=Ich hab' noch Straﬂenstaub an meinen Schuhen
TTITLE3=Und nachts , wenn alles schlief
TTITLE4=Truck Drivin' Girl
TTITLE5=Kameraden der Straﬂe
TTITLE6=Adios Amigo
TTITLE7=Gebet eines Truckers
TTITLE8=Amanda
TTITLE9=Mein Brummi
TTITLE10=Geistertruck
TTITLE11=Meine Antwort ist die groﬂe Autobahn
TTITLE12=Wer hat ein Herz , das nie bricht
TTITLE13=Irrer Wahnsinns Superzahn (Son-of-a Truckdriving Son-of-a Gun)
EXTD=
EXTT0=
EXTT1=
EXTT2=
EXTT3=
EXTT4=
EXTT5=
EXTT6=
EXTT7=
EXTT8=
EXTT9=
EXTT10=
EXTT11=
EXTT12=
EXTT13=
PLAYORDER=
